<?xml version="1.0" encoding="UTF-8"?>
<svg id="Layer_2" data-name="Layer 2" xmlns="http://www.w3.org/2000/svg" viewBox="0 0 229.23 96.36">
  <defs>
    <style>
      .cls-1 {
        fill: #231f20;
      }

      .cls-2 {
        stroke: #231f20;
        stroke-miterlimit: 10;
        stroke-width: 2px;
      }
    </style>
  </defs>
  <g id="Layer_1" data-name="Layer 1">
    <g>
      <g>
        <path class="cls-1" d="M4.15,52.88c-.26,0-.45-.1-.58-.3s-.21-.44-.25-.71c-.04-.27-.05-.51-.05-.7v-1.42c0-.76.07-1.52.21-2.29.14-.77.21-1.56.23-2.37h-.03v-.11c0-.15-.03-.27-.08-.37-.48,0-.94-.09-1.39-.28-.45-.19-.67-.58-.67-1.16,0-.62.2-1.07.61-1.33.4-.26.88-.44,1.43-.51.28-.15.41-.47.41-.97v-5.03c0-.38.02-.76.06-1.15.04-.39.16-.72.37-.99.21-.27.58-.41,1.11-.41.42,0,.8.16,1.14.47.34.31.51.69.51,1.12v6.81h6.84c.2,0,.39-.04.56-.11.17-.08.3-.22.37-.43,0-.27.02-.64.07-1.14s.1-1.01.17-1.55c.06-.54.13-1.04.19-1.49.06-.45.11-.79.12-.99.07-.55.23-1.06.48-1.55.25-.48.68-.72,1.31-.72.26,0,.5.04.73.11.23.08.41.27.54.6v.74c0,.98-.09,1.94-.28,2.87-.18.93-.27,1.87-.27,2.84v.85c.44.17.78.37,1.02.6s.36.55.36.97-.06.72-.18.91c-.12.19-.27.32-.44.4-.17.08-.34.14-.51.2s-.29.16-.38.31v4.03c0,.34-.04.75-.12,1.22-.08.47-.23.89-.45,1.24-.22.35-.53.53-.93.53-.59,0-1.01-.18-1.26-.54-.26-.36-.41-.79-.47-1.31s-.08-.98-.08-1.42c0-.59.02-1.17.05-1.75.04-.58.05-1.15.05-1.72,0-.06,0-.12-.01-.18,0-.07-.04-.14-.1-.21-.33,0-.77,0-1.31-.03-.54-.02-1.1-.03-1.66-.04-.57,0-1.09-.02-1.55-.04-.47-.02-.8-.03-1-.03h-.66c-.4,0-.73.06-.98.17-.25.11-.41.33-.48.65-.04.74-.06,1.5-.08,2.29s-.07,1.57-.17,2.34c-.09.78-.28,1.51-.58,2.21-.02.21-.07.41-.17.6s-.27.28-.52.28h-1.24Z"/>
        <path class="cls-1" d="M24.27,57.17c-.35,0-.61-.19-.8-.57-.18-.38-.32-.76-.41-1.14v-3.66c0-.09.02-.35.07-.75.04-.41.1-.89.17-1.45.06-.56.13-1.1.19-1.62.06-.52.11-.93.15-1.23.06-.38.12-.8.21-1.25.08-.45.23-.85.45-1.19.22-.34.53-.51.93-.51.44,0,.76.11.95.33s.31.49.34.81c.04.32.05.65.05.99v.99s0,.12-.03.24c-.02.12-.05.26-.08.41-.13.66-.22,1.15-.29,1.46-.06.31-.11.58-.14.79-.03.22-.04.52-.04.89,0,.23,0,.51.01.85,0,.34.01.79.01,1.33,0,.25,0,.49.03.72.02.24.03.49.03.75,0,.28-.03.59-.08.91-.07.47-.24.9-.5,1.29-.26.39-.67.58-1.24.58ZM25.37,40.11c-.55,0-1.03-.18-1.43-.54-.4-.36-.6-.89-.6-1.59s.24-1.19.71-1.48c.48-.28.96-.43,1.46-.43.57,0,1.05.18,1.44.54.39.36.59.9.59,1.62,0,.68-.23,1.16-.7,1.45-.47.28-.96.43-1.47.43Z"/>
        <path class="cls-1" d="M34.85,57.61c-.53-.19-1.04-.44-1.53-.75-.49-.31-.88-.67-1.18-1.08-.3-.41-.45-.85-.45-1.32,0-.44.15-.76.45-.97.3-.21.63-.31.98-.31.4,0,.74.13,1,.38s.55.51.85.77c.3.26.67.38,1.11.38.53,0,1-.18,1.4-.54.4-.36.74-.82,1.02-1.39.28-.57.49-1.17.65-1.82.16-.64.24-1.25.26-1.82.02-.13.05-.42.08-.87.04-.44.08-.91.12-1.41s.07-.85.07-1.08v-.28c0-.15-.04-.23-.11-.23h-.11c-.55.66-1.11,1.34-1.69,2.04-.58.7-1.22,1.28-1.94,1.75-.71.46-1.54.7-2.47.7-.71,0-1.38-.19-2.01-.57-.62-.38-1.13-.89-1.51-1.53s-.58-1.36-.58-2.16c0-1.31.25-2.61.74-3.9.49-1.3,1.18-2.48,2.06-3.54.88-1.06,1.9-1.91,3.07-2.56,1.16-.64,2.42-.97,3.78-.97.37,0,.75.07,1.15.2.4.13.75.35,1.03.64s.43.69.43,1.18c0,.44-.15.79-.45,1.05-.3.27-.67.4-1.09.4-.29,0-.58-.05-.87-.14s-.57-.14-.87-.14h-.55c-1.01.3-1.92.84-2.73,1.6-.82.77-1.46,1.66-1.94,2.67-.48,1.01-.71,2.04-.71,3.08v.97c.15.55.45.82.91.82.42,0,.84-.16,1.26-.48.42-.32.83-.72,1.24-1.21.4-.48.78-.97,1.13-1.45.35-.48.67-.88.96-1.21.27-.49.59-.96.93-1.41.35-.44.67-.91.96-1.41.2-.27.39-.44.58-.54.18-.09.4-.14.66-.14.46,0,.79.13,1,.38s.36.57.45.95c.09.38.16.74.19,1.08v2.13c0,.78-.02,1.66-.07,2.64-.05.98-.14,2-.27,3.05-.14,1.05-.35,2.07-.65,3.05-.29.98-.68,1.87-1.17,2.67-.49.79-1.09,1.43-1.83,1.9-.73.47-1.62.71-2.67.71h-1.1Z"/>
        <path class="cls-1" d="M50.91,63.61c-.53-.19-1.04-.44-1.53-.75-.49-.31-.88-.67-1.18-1.08-.3-.41-.45-.85-.45-1.32,0-.44.15-.76.45-.97.3-.21.63-.31.98-.31.4,0,.74.13,1,.38s.55.51.85.77c.3.26.67.38,1.11.38.53,0,1-.18,1.4-.54.4-.36.74-.82,1.02-1.39s.49-1.17.65-1.82.24-1.25.26-1.82c.02-.13.04-.42.08-.87.04-.44.08-.91.12-1.41.04-.49.07-.85.07-1.08v-.28c0-.15-.04-.23-.11-.23h-.11c-.55.66-1.11,1.34-1.69,2.04-.58.7-1.22,1.28-1.94,1.75-.71.46-1.54.7-2.47.7-.71,0-1.38-.19-2.01-.57-.62-.38-1.13-.89-1.51-1.53s-.58-1.36-.58-2.16c0-1.31.25-2.61.74-3.9.49-1.3,1.18-2.48,2.06-3.54.88-1.06,1.9-1.91,3.07-2.56,1.16-.64,2.42-.97,3.78-.97.37,0,.75.07,1.15.2.4.13.75.35,1.03.64.28.29.43.69.43,1.18,0,.44-.15.79-.45,1.05-.3.27-.66.4-1.08.4-.29,0-.58-.05-.87-.14s-.57-.14-.87-.14h-.55c-1.01.3-1.92.84-2.73,1.6-.82.77-1.46,1.66-1.94,2.67-.48,1.01-.71,2.04-.71,3.08v.97c.15.55.45.82.91.82.42,0,.84-.16,1.26-.48.42-.32.83-.72,1.24-1.21.4-.48.78-.97,1.13-1.45.35-.48.67-.88.96-1.21.27-.49.59-.96.93-1.41.35-.44.67-.91.96-1.41.2-.27.39-.44.58-.54.18-.09.4-.14.66-.14.46,0,.79.13,1,.38s.36.57.45.95c.09.38.16.74.19,1.08v2.13c0,.78-.02,1.66-.07,2.64-.05.98-.14,2-.27,3.05-.14,1.05-.35,2.07-.65,3.05s-.68,1.87-1.17,2.67c-.49.79-1.09,1.43-1.83,1.9-.73.47-1.62.71-2.67.71h-1.1Z"/>
        <path class="cls-1" d="M64.13,52.74c-.42,0-.74-.15-.95-.44-.21-.29-.35-.66-.41-1.09-.06-.44-.1-.88-.1-1.33,0-.23,0-.45.01-.67,0-.22.01-.42.01-.61,0-.45,0-1.15.03-2.1.02-.95.04-2.03.08-3.25.04-1.22.08-2.49.14-3.82.05-1.32.13-2.6.23-3.83s.21-2.31.34-3.24c.13-.85.36-1.53.7-2.04s.68-.77,1.03-.77c.31,0,.58.26.8.77s.3,1.35.25,2.53c-.35,2.18-.6,4.28-.77,6.3s-.25,4.12-.25,6.27c0,.91.05,1.82.14,2.73.09.91.14,1.82.14,2.73,0,.59-.12,1.05-.36,1.38-.24.33-.6.5-1.07.5Z"/>
        <path class="cls-1" d="M76.03,55.02c-1.32,0-2.53-.21-3.64-.64-1.11-.43-2-1.11-2.68-2.04-.68-.94-1.02-2.15-1.02-3.65,0-1.14.18-2.24.54-3.32s.88-2.06,1.55-2.94c.68-.88,1.49-1.58,2.45-2.1.95-.52,2.02-.78,3.22-.78.81,0,1.56.17,2.27.5.71.33,1.27.81,1.7,1.45.43.63.65,1.41.65,2.31s-.17,1.7-.52,2.5c-.35.79-.82,1.5-1.43,2.13-.6.62-1.29,1.11-2.05,1.46-.76.35-1.55.53-2.38.53-.13,0-.41-.03-.85-.1-.44-.07-.79-.14-1.04-.21-.18-.04-.33-.11-.44-.23-.04-.02-.1-.05-.19-.1-.09-.05-.16-.07-.19-.07.13.55.4,1.01.81,1.38.41.37.89.64,1.43.81.54.17,1.06.26,1.55.26.35,0,.7-.02,1.06-.07s.74-.07,1.14-.07.75.11,1.04.34.44.6.44,1.11c0,.42-.12.74-.37.97-.25.23-.56.38-.93.45-.38.08-.75.12-1.13.13-.38,0-.7.01-.98.01ZM74.68,47.13c.55,0,1.09-.11,1.63-.33s.99-.54,1.35-.98.54-.98.54-1.62c0-.55-.16-.98-.48-1.31-.32-.32-.75-.48-1.28-.48-.48,0-.98.13-1.51.4s-1.03.61-1.5,1.02c-.47.42-.85.87-1.14,1.35-.29.48-.44.95-.44,1.41v.11c.48.08.95.17,1.43.27s.94.16,1.4.16Z"/>
        <path class="cls-1" d="M87.49,51.02c-.92-.25-1.68-.67-2.29-1.26-.61-.6-1.07-1.3-1.37-2.12-.3-.81-.45-1.67-.45-2.56,0-1.23.26-2.42.77-3.56.51-1.15,1.21-2.17,2.08-3.07s1.86-1.61,2.97-2.14c1.11-.53,2.26-.79,3.45-.79.42,0,.83.06,1.22.18.39.12.79.19,1.2.21l.11-.37c.02-.34.05-.77.08-1.28.04-.51.09-1.05.15-1.6.06-.56.14-1.09.22-1.6.08-.51.18-.92.29-1.22.15-.44.36-.81.63-1.12.28-.31.64-.47,1.1-.47s.76.15.89.45c.14.3.21.68.21,1.14v.71c-.26,2.18-.45,4.32-.59,6.43-.14,2.11-.21,4.22-.21,6.32,0,.97.04,1.91.14,2.83.09.92.14,1.88.14,2.88,0,.36-.05.71-.15,1.06-.1.35-.38.53-.84.53s-.84-.14-1.1-.41-.44-.62-.55-1.04c-.11-.42-.2-.81-.27-1.19-.04-.28-.07-.43-.11-.43h-.11c-.95,1.08-1.93,1.93-2.93,2.56-1,.62-2.15.94-3.45.94h-1.21ZM88.53,48.13c.71,0,1.4-.2,2.06-.6.66-.4,1.25-.92,1.77-1.56.52-.64.93-1.34,1.24-2.09.3-.75.45-1.46.45-2.14,0-.17-.04-.43-.11-.77s-.17-.7-.28-1.08c-.11-.38-.22-.7-.34-.95-.12-.26-.22-.38-.32-.38-.88,0-1.71.18-2.5.55-.79.37-1.49.87-2.1,1.49-.61.62-1.1,1.33-1.46,2.13-.36.8-.54,1.63-.54,2.5v1.14c.15.55.39.98.74,1.29.35.31.81.47,1.37.47Z"/>
        <path class="cls-1" d="M105.98,60.04c-.33,0-.58-.17-.74-.5-.17-.33-.25-.66-.25-.98,0-.61.13-1.18.38-1.72.26-.54.49-1.08.69-1.63.09-.25.21-.56.34-.95.14-.39.27-.78.41-1.18.14-.4.25-.74.34-1.02.09-.28.14-.44.14-.48v-.09c-1.01-.08-1.85-.35-2.53-.82s-1.22-1.07-1.62-1.79c-.4-.72-.71-1.51-.91-2.37-.2-.86-.33-1.74-.4-2.63-.06-.89-.1-1.72-.1-2.5,0-.25,0-.57.03-.98.02-.41.07-.82.15-1.23.08-.42.22-.77.41-1.05.19-.28.46-.43.81-.43.68,0,1.12.26,1.33.77.21.51.32,1.07.32,1.68,0,.42-.02.8-.07,1.16-.05.36-.07.76-.07,1.19v.28c0,.13.03.42.08.85.05.44.11.88.18,1.33.06.45.11.79.15,1.02.09.62.27,1.17.55,1.63.27.46.66.7,1.15.7.59,0,1.1-.24,1.55-.71.45-.47.85-1.09,1.21-1.85.36-.76.7-1.56,1.03-2.4.33-.84.66-1.64.99-2.4.33-.76.69-1.37,1.08-1.85.39-.47.84-.71,1.33-.71.83,0,1.24.47,1.24,1.42,0,.64-.1,1.26-.29,1.85-.19.59-.44,1.15-.73,1.7-.28.55-.57,1.09-.88,1.62s-.59,1.07-.82,1.62c-.73,1.61-1.41,3.26-2.02,4.96-.61,1.69-1.21,3.39-1.77,5.1-.15.44-.33.92-.55,1.45-.22.53-.5.98-.84,1.36-.34.38-.78.57-1.33.57Z"/>
        <path class="cls-1" d="M119.56,55.61c-.29,0-.53-.08-.71-.26-.18-.17-.36-.43-.52-.77v-1.96c0-1.84.11-3.64.34-5.42.23-1.78.34-3.62.34-5.51v-3.04c-.13-.21-.28-.37-.45-.48-.17-.11-.33-.25-.45-.4-.13-.15-.19-.38-.19-.68,0-.36.05-.64.15-.85.1-.21.37-.55.81-1.02v-2.9c0-.3.17-.55.51-.74.34-.19.63-.28.87-.28.31,0,.55.09.71.27.16.18.29.39.38.64.09.25.17.46.25.64.07.18.17.27.3.27.18,0,.38-.06.59-.17.21-.11.41-.2.59-.26.15-.06.34-.12.58-.18.24-.07.47-.12.69-.17.22-.05.35-.07.38-.07h1.21c1.14,0,2.2.2,3.19.61.99.41,1.8,1.03,2.42,1.86s.93,1.89.93,3.18c0,1.14-.22,2.27-.66,3.39-.44,1.13-1.04,2.16-1.81,3.09s-1.65,1.69-2.65,2.24c-1,.56-2.06.84-3.17.84-.35,0-.7-.05-1.06-.14s-.72-.14-1.09-.14h-.25c-.02.47-.05,1.01-.1,1.6-.05.6-.09,1.14-.12,1.63-.04.49-.06.84-.06,1.05,0,.08,0,.14-.03.2l-.03.17c-.04.26-.08.53-.12.81-.05.27-.08.54-.1.81-.05.28-.14.59-.26.92-.12.33-.29.61-.52.85-.23.24-.53.35-.89.35ZM124.04,44.45c.75,0,1.46-.19,2.12-.58.66-.39,1.25-.9,1.76-1.53.51-.63.92-1.32,1.21-2.07.29-.75.44-1.48.44-2.2,0-1.02-.34-1.76-1.03-2.21-.69-.45-1.51-.68-2.46-.68-.35,0-.68.01-.99.04s-.6.11-.88.24c-1.01.45-1.65.96-1.92,1.52-.27.56-.41,1.21-.41,1.94,0,.3,0,.63.03.98.02.35.03.71.03,1.09v2.24c0,.32.12.57.36.75.24.18.53.3.87.37s.64.1.89.1Z"/>
        <path class="cls-1" d="M136.74,60.17c-.35,0-.61-.19-.8-.57-.18-.38-.32-.76-.41-1.14v-3.66c0-.09.02-.35.07-.75.05-.41.1-.89.17-1.45.06-.56.13-1.1.19-1.62.06-.52.11-.93.15-1.23.05-.38.12-.8.21-1.25.08-.45.23-.85.45-1.19.22-.34.53-.51.93-.51.44,0,.76.11.95.33s.31.49.34.81c.04.32.05.65.05.99v.99s0,.12-.03.24c-.02.12-.05.26-.08.41-.13.66-.22,1.15-.29,1.46-.06.31-.11.58-.14.79-.03.22-.04.52-.04.89,0,.23,0,.51.01.85s.01.79.01,1.33c0,.25,0,.49.03.72.02.24.03.49.03.75,0,.28-.03.59-.08.91-.07.47-.24.9-.49,1.29-.26.39-.67.58-1.24.58ZM137.84,43.11c-.55,0-1.03-.18-1.43-.54-.4-.36-.6-.89-.6-1.59s.24-1.19.71-1.48c.48-.28.96-.43,1.46-.43.57,0,1.05.18,1.44.54.39.36.59.9.59,1.62,0,.68-.23,1.16-.7,1.45-.47.28-.96.43-1.47.43Z"/>
        <path class="cls-1" d="M147.32,64.61c-.53-.19-1.04-.44-1.53-.75-.49-.31-.88-.67-1.18-1.08-.3-.41-.45-.85-.45-1.32,0-.44.15-.76.45-.97.3-.21.63-.31.98-.31.4,0,.74.13,1,.38s.55.51.85.77c.3.26.67.38,1.11.38.53,0,1-.18,1.4-.54.4-.36.74-.82,1.02-1.39s.49-1.17.65-1.82c.16-.64.24-1.25.26-1.82.02-.13.04-.42.08-.87.04-.44.08-.91.12-1.41.04-.49.07-.85.07-1.08v-.28c0-.15-.04-.23-.11-.23h-.11c-.55.66-1.11,1.34-1.69,2.04-.58.7-1.22,1.28-1.94,1.75-.71.46-1.54.7-2.47.7-.71,0-1.38-.19-2.01-.57-.62-.38-1.13-.89-1.51-1.53s-.58-1.36-.58-2.16c0-1.31.25-2.61.74-3.9.5-1.3,1.18-2.48,2.06-3.54.88-1.06,1.9-1.91,3.06-2.56,1.16-.64,2.42-.97,3.78-.97.37,0,.75.07,1.15.2.4.13.75.35,1.03.64.28.29.43.69.43,1.18,0,.44-.15.79-.45,1.05-.3.27-.66.4-1.08.4-.29,0-.58-.05-.87-.14s-.57-.14-.87-.14h-.55c-1.01.3-1.92.84-2.74,1.6s-1.46,1.66-1.94,2.67-.71,2.04-.71,3.08v.97c.15.55.45.82.91.82.42,0,.84-.16,1.26-.48.42-.32.83-.72,1.24-1.21.4-.48.78-.97,1.13-1.45.35-.48.67-.88.96-1.21.28-.49.59-.96.93-1.41.35-.44.67-.91.96-1.41.2-.27.39-.44.58-.54.18-.09.4-.14.66-.14.46,0,.79.13,1,.38s.36.57.45.95c.09.38.16.74.19,1.08v2.13c0,.78-.02,1.66-.07,2.64-.05.98-.14,2-.27,3.05-.14,1.05-.35,2.07-.65,3.05s-.68,1.87-1.17,2.67c-.49.79-1.09,1.43-1.83,1.9-.73.47-1.62.71-2.67.71h-1.1Z"/>
        <path class="cls-1" d="M163.37,60.61c-.53-.19-1.04-.44-1.53-.75-.49-.31-.88-.67-1.18-1.08-.3-.41-.45-.85-.45-1.32,0-.44.15-.76.45-.97.3-.21.63-.31.98-.31.4,0,.74.13,1,.38s.55.51.85.77c.3.26.67.38,1.11.38.53,0,1-.18,1.4-.54.4-.36.74-.82,1.02-1.39s.49-1.17.65-1.82c.16-.64.24-1.25.26-1.82.02-.13.04-.42.08-.87.04-.44.08-.91.12-1.41.04-.49.07-.85.07-1.08v-.28c0-.15-.04-.23-.11-.23h-.11c-.55.66-1.11,1.34-1.69,2.04-.58.7-1.22,1.28-1.94,1.75-.71.46-1.54.7-2.47.7-.71,0-1.38-.19-2.01-.57-.62-.38-1.13-.89-1.51-1.53s-.58-1.36-.58-2.16c0-1.31.25-2.61.74-3.9.5-1.3,1.18-2.48,2.06-3.54.88-1.06,1.9-1.91,3.06-2.56,1.16-.64,2.42-.97,3.78-.97.37,0,.75.07,1.15.2.4.13.75.35,1.03.64.28.29.43.69.43,1.18,0,.44-.15.79-.45,1.05-.3.27-.66.4-1.08.4-.29,0-.58-.05-.87-.14s-.57-.14-.87-.14h-.55c-1.01.3-1.92.84-2.74,1.6s-1.46,1.66-1.94,2.67-.71,2.04-.71,3.08v.97c.15.55.45.82.91.82.42,0,.84-.16,1.26-.48.42-.32.83-.72,1.24-1.21.4-.48.78-.97,1.13-1.45.35-.48.67-.88.96-1.21.28-.49.59-.96.93-1.41.35-.44.67-.91.96-1.41.2-.27.39-.44.58-.54.18-.09.4-.14.66-.14.46,0,.79.13,1,.38s.36.57.45.95c.09.38.16.74.19,1.08v2.13c0,.78-.02,1.66-.07,2.64-.05.98-.14,2-.27,3.05-.14,1.05-.35,2.07-.65,3.05s-.68,1.87-1.17,2.67c-.49.79-1.09,1.43-1.83,1.9-.73.47-1.62.71-2.67.71h-1.1Z"/>
        <path class="cls-1" d="M176.59,52.74c-.42,0-.74-.15-.95-.44-.21-.29-.35-.66-.41-1.09-.06-.44-.1-.88-.1-1.33,0-.23,0-.45.01-.67,0-.22.01-.42.01-.61,0-.45,0-1.15.03-2.1.02-.95.04-2.03.08-3.25.04-1.22.08-2.49.14-3.82.05-1.32.13-2.6.23-3.83s.21-2.31.34-3.24c.13-.85.36-1.53.7-2.04s.68-.77,1.03-.77c.31,0,.58.26.8.77s.3,1.35.25,2.53c-.35,2.18-.6,4.28-.77,6.3s-.25,4.12-.25,6.27c0,.91.05,1.82.14,2.73.09.91.14,1.82.14,2.73,0,.59-.12,1.05-.36,1.38-.24.33-.6.5-1.07.5Z"/>
        <path class="cls-1" d="M188.49,57.02c-1.32,0-2.53-.21-3.64-.64-1.11-.43-2-1.11-2.68-2.04-.68-.94-1.02-2.15-1.02-3.65,0-1.14.18-2.24.54-3.32s.88-2.06,1.55-2.94c.68-.88,1.49-1.58,2.45-2.1.95-.52,2.02-.78,3.22-.78.81,0,1.56.17,2.27.5.71.33,1.27.81,1.7,1.45.43.63.65,1.41.65,2.31s-.17,1.7-.52,2.5c-.35.79-.82,1.5-1.43,2.13-.6.62-1.29,1.11-2.05,1.46-.76.35-1.55.53-2.38.53-.13,0-.41-.03-.85-.1-.44-.07-.79-.14-1.04-.21-.18-.04-.33-.11-.44-.23-.04-.02-.1-.05-.19-.1-.09-.05-.16-.07-.19-.07.13.55.4,1.01.81,1.38.41.37.89.64,1.43.81.54.17,1.06.26,1.55.26.35,0,.7-.02,1.06-.07s.74-.07,1.14-.07.75.11,1.04.34.44.6.44,1.11c0,.42-.12.74-.37.97-.25.23-.56.38-.93.45-.38.08-.75.12-1.13.13-.38,0-.7.01-.98.01ZM187.14,49.13c.55,0,1.09-.11,1.63-.33s.99-.54,1.35-.98.54-.98.54-1.62c0-.55-.16-.98-.48-1.31-.32-.32-.75-.48-1.28-.48-.48,0-.98.13-1.51.4s-1.03.61-1.5,1.02c-.47.42-.85.87-1.14,1.35-.29.48-.44.95-.44,1.41v.11c.48.08.95.17,1.43.27s.94.16,1.4.16Z"/>
        <path class="cls-1" d="M199.95,53.02c-.92-.25-1.68-.67-2.29-1.26-.61-.6-1.07-1.3-1.37-2.12-.3-.81-.45-1.67-.45-2.56,0-1.23.26-2.42.77-3.56.51-1.15,1.21-2.17,2.08-3.07s1.86-1.61,2.97-2.14c1.11-.53,2.26-.79,3.45-.79.42,0,.83.06,1.22.18.39.12.79.19,1.2.21l.11-.37c.02-.34.05-.77.08-1.28.04-.51.09-1.05.15-1.6.06-.56.14-1.09.22-1.6.08-.51.18-.92.29-1.22.15-.44.36-.81.63-1.12.28-.31.64-.47,1.1-.47s.76.15.89.45c.14.3.21.68.21,1.14v.71c-.26,2.18-.45,4.32-.59,6.43-.14,2.11-.21,4.22-.21,6.32,0,.97.04,1.91.14,2.83.09.92.14,1.88.14,2.88,0,.36-.05.71-.15,1.06-.1.35-.38.53-.84.53s-.84-.14-1.1-.41-.44-.62-.55-1.04c-.11-.42-.2-.81-.27-1.19-.04-.28-.07-.43-.11-.43h-.11c-.95,1.08-1.93,1.93-2.93,2.56-1,.62-2.15.94-3.45.94h-1.21ZM201,50.13c.71,0,1.4-.2,2.06-.6.66-.4,1.25-.92,1.77-1.56.52-.64.93-1.34,1.24-2.09.3-.75.45-1.46.45-2.14,0-.17-.04-.43-.11-.77s-.17-.7-.28-1.08c-.11-.38-.22-.7-.34-.95-.12-.26-.22-.38-.32-.38-.88,0-1.71.18-2.5.55-.79.37-1.49.87-2.1,1.49-.61.62-1.1,1.33-1.46,2.13-.36.8-.54,1.63-.54,2.5v1.14c.15.55.39.98.74,1.29.35.31.81.47,1.37.47Z"/>
        <path class="cls-1" d="M218.45,60.04c-.33,0-.58-.17-.74-.5-.17-.33-.25-.66-.25-.98,0-.61.13-1.18.38-1.72.26-.54.49-1.08.69-1.63.09-.25.21-.56.34-.95.14-.39.27-.78.41-1.18.14-.4.25-.74.34-1.02.09-.28.14-.44.14-.48v-.09c-1.01-.08-1.85-.35-2.53-.82s-1.22-1.07-1.62-1.79c-.4-.72-.71-1.51-.91-2.37-.2-.86-.33-1.74-.4-2.63-.06-.89-.1-1.72-.1-2.5,0-.25,0-.57.03-.98.02-.41.07-.82.15-1.23.08-.42.22-.77.41-1.05.19-.28.46-.43.81-.43.68,0,1.12.26,1.33.77.21.51.32,1.07.32,1.68,0,.42-.02.8-.07,1.16-.05.36-.07.76-.07,1.19v.28c0,.13.03.42.08.85.05.44.11.88.18,1.33.06.45.11.79.15,1.02.09.62.27,1.17.55,1.63.27.46.66.7,1.15.7.59,0,1.1-.24,1.55-.71.45-.47.85-1.09,1.21-1.85.36-.76.7-1.56,1.03-2.4.33-.84.66-1.64.99-2.4.33-.76.69-1.37,1.08-1.85.39-.47.84-.71,1.33-.71.83,0,1.24.47,1.24,1.42,0,.64-.1,1.26-.29,1.85-.19.59-.44,1.15-.73,1.7-.28.55-.57,1.09-.88,1.62s-.59,1.07-.82,1.62c-.73,1.61-1.41,3.26-2.02,4.96-.61,1.69-1.21,3.39-1.77,5.1-.15.44-.33.92-.55,1.45-.22.53-.5.98-.84,1.36-.34.38-.78.57-1.33.57Z"/>
      </g>
      <g>
        <path class="cls-1" d="M71.32,17.32c.49-.02.86-.08,1.12-.18.25-.1.45-.31.6-.64.15-.33.22-.84.22-1.55V4.52c0-1.02.04-1.83.11-2.45l-2.04.08V.06L79.06,0c2.45-.02,4.37.47,5.76,1.46,1.39.99,2.08,2.49,2.08,4.51,0,1.04-.29,2.02-.87,2.97s-1.45,1.72-2.61,2.31c-1.16.6-2.58.93-4.25.98l-1.06.03-.9-.03v2.4c0,1.04-.04,1.86-.11,2.48.58-.05,1.35-.08,2.32-.08v2.1h-8.09v-1.8ZM81.66,9.16c.68-.74,1.02-1.81,1.02-3.23,0-2.69-1.22-4.03-3.65-4.03-.64,0-1.1.14-1.39.41-.29.27-.44.85-.44,1.74v6.13c.38.05.79.08,1.23.08,1.47,0,2.55-.37,3.23-1.1Z"/>
        <path class="cls-1" d="M88.44,17.35c.69,0,1.13-.19,1.32-.57s.29-1,.29-1.85v-4.58c0-.82.04-1.59.11-2.31l-1.91.08v-2.07c1.14,0,2.07-.08,2.78-.25.71-.16,1.18-.35,1.42-.57h1.33c.04.27.06.63.08,1.06.02.44.03.86.03,1.28h.05c1.23-1.67,2.54-2.5,3.92-2.5.69,0,1.26.19,1.7.57.44.38.67.94.67,1.69,0,.47-.15.91-.46,1.31s-.77.6-1.39.6c-.45,0-.86-.12-1.21-.35-.35-.24-.56-.64-.61-1.23-.51,0-1.03.3-1.57.88-.54.59-.89,1.18-1.08,1.76v4.44c0,.87-.04,1.67-.11,2.4.58-.05,1.17-.08,1.77-.08v2.07h-7.14v-1.77Z"/>
        <path class="cls-1" d="M104.17,18.71c-1.05-.56-1.88-1.37-2.48-2.42-.6-1.05-.9-2.28-.9-3.68,0-1.47.31-2.78.93-3.92.62-1.14,1.45-2.03,2.49-2.67s2.19-.95,3.45-.95,2.48.28,3.51.84c1.04.56,1.85,1.38,2.45,2.44.6,1.06.9,2.3.9,3.72,0,1.51-.29,2.82-.86,3.95-.57,1.13-1.37,2-2.4,2.61-1.03.62-2.2.93-3.53.93s-2.51-.28-3.57-.84ZM109.89,16.23c.4-.93.6-2.09.6-3.49,0-1.56-.23-2.91-.68-4.06-.45-1.14-1.17-1.72-2.15-1.72s-1.73.47-2.18,1.42c-.45.94-.68,2.11-.68,3.49,0,1.58.25,2.93.74,4.06.49,1.12,1.24,1.69,2.26,1.69s1.7-.46,2.1-1.39Z"/>
        <path class="cls-1" d="M115.64,24.29c.69,0,1.13-.19,1.33-.57.2-.38.3-1,.3-1.85v-11.52c0-.82.04-1.59.11-2.31l-1.93.08v-2.07c1.14,0,2.07-.08,2.78-.25s1.18-.35,1.42-.57h1.33c.04.31.08.75.14,1.31h.03c1.13-.98,2.34-1.47,3.65-1.47,1.09,0,2.05.28,2.87.84.83.56,1.47,1.37,1.93,2.41.46,1.04.69,2.26.69,3.64,0,1.45-.28,2.75-.84,3.91-.56,1.15-1.36,2.06-2.38,2.71-1.03.65-2.2.98-3.53.98-.71,0-1.52-.16-2.42-.49v2.62c0,.78-.03,1.58-.08,2.4.56-.05,1.14-.08,1.74-.08v2.07h-7.14v-1.77ZM126.29,12.36c0-1.34-.24-2.49-.72-3.43-.48-.94-1.2-1.42-2.17-1.42-.45,0-.88.11-1.29.33-.41.22-.74.51-.99.87v8.31c.18.13.45.24.8.34.35.1.71.15,1.08.15,2.2,0,3.29-1.72,3.29-5.15Z"/>
        <path class="cls-1" d="M134.95,18.67c-1.02-.59-1.81-1.43-2.37-2.52-.56-1.09-.84-2.36-.84-3.81,0-1.27.29-2.46.86-3.58.57-1.12,1.38-2.01,2.41-2.68,1.03-.67,2.21-1.01,3.54-1.01,1.76,0,3.23.52,4.4,1.55,1.17,1.04,1.75,2.76,1.73,5.17l-8.93.16c0,1.6.3,2.86.91,3.79s1.58,1.39,2.93,1.39c.63,0,1.32-.16,2.04-.49.73-.33,1.38-.84,1.96-1.55l1.23,1.14c-1.54,2.22-3.66,3.32-6.35,3.32-1.33,0-2.5-.29-3.51-.88ZM140.92,10.05c-.05-2.05-.8-3.08-2.23-3.08-.78,0-1.4.28-1.87.83s-.77,1.3-.91,2.25h5.01Z"/>
        <path class="cls-1" d="M146.11,17.35c.69,0,1.13-.19,1.32-.57s.29-1,.29-1.85v-4.58c0-.82.04-1.59.11-2.31l-1.91.08v-2.07c1.14,0,2.07-.08,2.78-.25.71-.16,1.18-.35,1.42-.57h1.33c.04.27.06.63.08,1.06.02.44.03.86.03,1.28h.05c1.23-1.67,2.54-2.5,3.92-2.5.69,0,1.26.19,1.7.57.44.38.67.94.67,1.69,0,.47-.15.91-.46,1.31s-.77.6-1.39.6c-.45,0-.86-.12-1.21-.35-.35-.24-.56-.64-.61-1.23-.51,0-1.03.3-1.57.88-.54.59-.89,1.18-1.08,1.76v4.44c0,.87-.04,1.67-.11,2.4.58-.05,1.17-.08,1.77-.08v2.07h-7.14v-1.77Z"/>
      </g>
      <path d="M113.02,62.91c10.7-.9,19.39,8.1,18.03,18.77-1.92,15.11-21.27,20.15-30.05,7.54-7.2-10.35-.66-25.24,12.01-26.31ZM103.84,68.76c-6.36,6.39-5.64,17.37,1.43,22.9,10.5,8.21,25.15.13,24.47-13.02-.67-13.07-16.67-19.17-25.91-9.88Z"/>
      <g>
        <line class="cls-2" y1="78.72" x2="92.86" y2="78.72"/>
        <line class="cls-2" x1="136.36" y1="78.72" x2="229.23" y2="78.72"/>
      </g>
      <g>
        <path class="cls-1" d="M108.22,86.23c.36-.01.64-.06.83-.13.19-.07.33-.23.44-.47.11-.24.16-3.58.16-4.1v-7.71c0-.75.03-1.35.08-1.81l-1.51.06v-1.55l5.72-.04c1.81-.01,3.23.35,4.26,1.08,1.03.73,1.54,1.84,1.54,3.33,0,.77-.21,1.5-.64,2.19s-1.07,1.27-1.93,1.71c-.86.44-1.91.68-3.14.72l-.79.02-.66-.02v4.73c0,.77-.03,1.38-.08,1.83.43-.04,1-.06,1.71-.06v1.55h-5.98v-1.33ZM115.86,77.25c.5-.54.76-1.34.76-2.39,0-1.99-.9-2.98-2.7-2.98-.47,0-.81.1-1.03.3-.22.2-.32.63-.32,1.29v4.53c.28.04.58.06.91.06,1.09,0,1.88-.27,2.38-.81Z"/>
        <path class="cls-1" d="M117.14,84.84c-.08.27-.1.53-.13.83s-.17,2.07-.23,2.37c-.06.29-.15.58-.28.84-.01.08-.04.15-.08.23s-.11.11-.21.11h-.47c-.1,0-.17-.04-.21-.11s-.07-.17-.07-.27c0-.1,0-.19,0-.26l.04-.54c.02-.29.17-2.06.24-2.35.07-.29.19-.96.18-1.27,0-.04,0-.14-.03-.18-.12-.15-1.13.18-1.3.14-.17-.04-.26-.17-.26-.39,0-.24.08-.42.23-.55.15-.13,1.19-.37,1.4-.44.11-.08.2-.66.22-.84l.07-1.07c.01-.14.03-.29.05-.44.02-.15.08-.27.17-.38.09-.1.23-.16.43-.16.16,0,.3.06.42.18.12.12.18.26.16.43l-.13,1.89c0,.1.07.16.16.14l2.29-.55c.08-.01.15-.04.21-.08.07-.04.2-.14.23-.23,0-.1.02-.25.05-.45s.06-.4.1-.61c.04-.21.17-2.2.21-2.38.03-.18.06-.31.07-.39.04-.21.11-.41.21-.6.1-.19.27-.28.5-.28.1,0,.18.02.27.05.08.03.14.11.19.23l-.02.29c-.02.38-.08.76-.17,1.12-.09.36-.23,2.32-.25,2.69l-.02.33c.16.04.23.11.32.18s.14.18.14.34-.02.28-.07.36c-.05.08-.1.14-.17.18-.07.04-.13.08-.19.11s-.12.09-.16.15l-.28,4.95c0,.13-.03.29-.07.48-.04.18-.11.34-.2.48-.09.14-.21.2-.36.2-.22,0-.37-.07-.46-.22-.09-.14-.14-.31-.14-.51s0-.38,0-.55c.01-.23.19-3.16.21-3.39.03-.22.07-.88.08-1.1,0-.02,0-.05,0-.07,0-.03-.01-.05-.03-.08-.12.02-.3.06-.51.09-.21.03-.84.15-1.05.19-.22.04-.35.07-.53.1-.18.03-.46.25-.51.32-.17.21-.21.5-.29.76Z"/>
      </g>
    </g>
  </g>
</svg>